<svg xmlns="http://www.w3.org/2000/svg" viewBox="0 0 24 24" fill="none" class="css-1k4f35i">
    <path fill-rule="evenodd" clip-rule="evenodd"
        d="M14.9585 3.62321L13.8756 1.74756L12 2.83043L10.1244 1.74756L9.04147 3.62321H6.87538V5.78916L5 6.8719L6.08292 8.74756L5.00003 10.6232L6.87538 11.706V13.8719H9.04144L10.1243 15.7476L12 14.6647L13.8757 15.7476L14.9586 13.8719H17.1241V11.7063L19 10.6232L17.9171 8.74756L19 6.87191L17.1241 5.78883V3.62321H14.9585Z"
        fill="#929AA5"></path>
    <path fill-rule="evenodd" clip-rule="evenodd"
        d="M7.5 15.3719V22.2524L12 18.8774L16.5 22.2524V15.3719H15.8246L14.4247 17.7965L12 16.3967L9.57527 17.7965L8.17539 15.3719H7.5ZM7.5 13.8719V5.37744H16.5V13.8719H14.9585L13.8756 15.7475L12 14.6646L10.1243 15.7475L9.04142 13.8719H7.5Z"
        fill="#929AA5"></path>
    <path
        d="M14.75 8.74756C14.75 10.2663 13.5188 11.4976 12 11.4976C10.4812 11.4976 9.25 10.2663 9.25 8.74756C9.25 7.22878 10.4812 5.99756 12 5.99756C13.5188 5.99756 14.75 7.22878 14.75 8.74756Z"
        fill="white"></path>
</svg>